# xmcd
#
# Track frame offsets:
#	150
#	14495
#	39450
#	52500
#	68962
#	90857
#	102955
#	114358
#	132387
#	147218
#	163109
#	168809
#
# Disc length: 2526 seconds
#
# Revision: 1
# Processed by: cddbd v1.5.2PL0 Copyright (c) Steve Scherf et al.
# Submitted via: EasyCDDAExtractor 16.0.6.1
#
DISCID=9009dc0c
DTITLE=Cafe R&B - American Music
DYEAR=2012
DGENRE=Blues
TTITLE0=Overture
TTITLE1=All In
TTITLE2=500 Dollars From Monday
TTITLE3=Bold American
TTITLE4=A Whole Lot Of Love In That House
TTITLE5=Got No Right
TTITLE6=Where I Live
TTITLE7=The Other Side Of Life
TTITLE8=Chili Clark
TTITLE9=September Song
TTITLE10=Awake 
TTITLE11=Gratitude
EXTD=
EXTT0=
EXTT1=
EXTT2=
EXTT3=
EXTT4=
EXTT5=
EXTT6=
EXTT7=
EXTT8=
EXTT9=
EXTT10=
EXTT11=
PLAYORDER=
